#!OML:ASF E:\emotionWalksFemale\Project 1\Capture day 1\Session 1\Female1.ASF
:FULLY-SPECIFIED
:DEGREES
1983
root 10.7966 15.434 -15.5081 -4.49165 -4.35963 -0.592826
lowerback 2.6153 1.49527 1.965
upperback -4.48187 2.22165 2.06375
thorax -6.12914 1.06045 0.870786
lowerneck -7.04754 -8.21015 -8.80687
upperneck 24.2286 -17.8997 27.2224
head 12.9212 -6.54274 9.6671
rclavicle -1.38155e-014 1.98785e-014
rhumerus -48.1597 -0.735721 -80.3285
rradius 30.1542
rwrist 20.529
rhand -5.61935 -52.094
rfingers 7.12502
rthumb 20.1982 -81.0639
lclavicle -1.38155e-014 1.98785e-014
lhumerus -46.0255 7.65542 77.9409
lradius 34.5631
lwrist -13.8371
lhand -2.5976 -32.4745
lfingers 7.12502
lthumb 23.1001 -3.83927
rfemur 14.1233 3.37306 24.9538
rtibia 39.8222
rfoot 10.1884 -1.94122
rtoes -1.58007
lfemur -14.6772 -19.2411 -24.9549
ltibia 25.2912
lfoot -11.3606 18.6386
ltoes 11.1091
1984
root 10.8184 15.4447 -15.4023 -4.50785 -4.45681 -0.158605
lowerback 2.57093 1.51852 1.64913
upperback -4.43596 2.22717 1.96899
thorax -6.06226 1.07598 0.949819
lowerneck -7.20385 -8.18535 -8.64788
upperneck 24.4051 -17.8581 26.9757
head 12.9639 -6.50368 9.54006
rclavicle -1.19271e-014 -9.54166e-015
rhumerus -47.9845 -0.44459 -80.5744
rradius 30.4214
rwrist 19.928
rhand -5.54391 -52.3701
rfingers 7.12502
rthumb 20.2707 -81.3323
lclavicle -1.19271e-014 -9.54166e-015
lhumerus -45.4491 7.75428 78.1283
lradius 34.3884
lwrist -13.5804
lhand -3.09395 -32.9905
lfingers 7.12502
lthumb 22.6238 -4.29642
rfemur 12.9465 3.26311 24.0495
rtibia 42.0844
rfoot 11.1262 -1.17949
rtoes -3.47276
lfemur -13.9704 -19.0712 -25.7278
ltibia 24.8094
lfoot -11.1926 18.7426
ltoes 11.8018
1985
root 10.8403 15.4512 -15.3028 -4.50196 -4.28035 0.416108
lowerback 2.63803 1.46608 1.17329
upperback -4.42056 2.12441 1.8228
thorax -6.09442 1.04331 1.07014
lowerneck -7.1989 -8.12593 -8.54548
upperneck 24.4918 -17.7574 26.8299
head 12.9386 -6.45431 9.47802
rclavicle -3.29983e-014 -7.95139e-015
rhumerus -47.7364 -0.406643 -80.6265
rradius 30.6327
rwrist 19.9615
rhand -5.08445 -52.5204
rfingers 7.12502
rthumb 20.7123 -81.4351
lclavicle -3.29983e-014 -7.95139e-015
lhumerus -44.7197 7.84114 78.3388
lradius 34
lwrist -13.5309
lhand -3.84331 -33.7523
lfingers 7.12502
lthumb 21.9044 -4.97232
rfemur 11.7632 2.912 22.978
rtibia 44.2898
rfoot 11.8399 -0.635778
rtoes -6.24504
lfemur -13.3618 -19.0054 -26.6838
ltibia 24.4059
lfoot -10.9319 18.5711
ltoes 12.631
1986
root 10.8608 15.4566 -15.203 -4.60741 -4.09329 0.889566
lowerback 2.83133 1.42828 0.807021
upperback -4.39083 2.04983 1.69322
thorax -6.18073 1.01972 1.14158
lowerneck -7.20387 -8.09059 -8.54797
upperneck 24.545 -17.7237 26.8552
head 12.9581 -6.4337 9.50297
rclavicle 8.74653e-015 -1.19271e-014
rhumerus -47.5615 -0.477036 -80.612
rradius 30.9174
rwrist 20.1329
rhand -5.3049 -51.9108
rfingers 7.12502
rthumb 20.5004 -80.8485
lclavicle 8.74653e-015 -1.19271e-014
lhumerus -44.7172 7.26457 78.8497
lradius 34.8309
lwrist -12.8459
lhand -4.10683 -33.6222
lfingers 7.12502
lthumb 21.6514 -4.81276
rfemur 10.6435 2.65303 22.1453
rtibia 46.4697
rfoot 12.4352 -0.490779
rtoes -8.36018
lfemur -12.6129 -18.827 -27.5494
ltibia 23.9819
lfoot -10.7767 18.1628
ltoes 14.1699
1987
root 10.8718 15.4623 -15.0985 -4.99648 -4.2845 0.670937
lowerback 3.18588 1.45066 1.01088
upperback -4.21033 2.1018 1.80759
thorax -6.19222 1.03839 1.13505
lowerneck -7.33881 -8.0635 -8.44012
upperneck 24.7838 -17.707 26.6632
head 13.0445 -6.40579 9.41661
rclavicle -2.38542e-015 -2.06736e-014
rhumerus -47.3231 -0.235193 -80.8674
rradius 31.1443
rwrist 19.5423
rhand -6.413 -51.1604
rfingers 7.12502
rthumb 19.4353 -80.2091
lclavicle -2.38542e-015 -2.06736e-014
lhumerus -44.288 7.07352 79.1578
lradius 35.0508
lwrist -12.1655
lhand -3.85555 -33.2786
lfingers 7.12502
lthumb 21.8927 -4.49721
rfemur 9.75652 2.69532 22.2688
rtibia 48.5108
rfoot 13.793 -0.764017
rtoes -7.1776
lfemur -11.5863 -18.4345 -27.6413
ltibia 23.6285
lfoot -11.0839 18.0448
ltoes 14.7458
1988
root 10.8921 15.4643 -15.014 -5.0006 -3.94912 1.16102
lowerback 3.26712 1.30714 0.549205
upperback -4.20893 1.87867 1.72788
thorax -6.24601 0.947346 1.32781
lowerneck -7.47664 -7.99062 -8.29976
upperneck 25.2856 -17.6276 26.2473
head 13.1892 -6.34953 9.25859
rclavicle 2.98177e-015 1.03368e-014
rhumerus -47.1064 0.157062 -81.1084
rradius 31.3687
rwrist 19.0771
rhand -6.79868 -51.0898
rfingers 7.12502
rthumb 19.0644 -80.1754
lclavicle 2.98177e-015 1.03368e-014
lhumerus -43.6823 7.2828 79.3552
lradius 34.7626
lwrist -11.9378
lhand -4.00806 -33.4518
lfingers 7.12502
lthumb 21.7462 -4.65336
rfemur 8.44777 2.00871 21.2478
rtibia 50.5903
rfoot 15.0682 -0.616275
rtoes -4.72667
lfemur -11.0671 -18.1676 -28.4657
ltibia 23.268
lfoot -11.2146 17.7847
ltoes 12.9681
1989
root 10.9036 15.4733 -14.9218 -5.07495 -3.68788 1.31765
lowerback 3.3191 1.18085 0.257053
upperback -4.1438 1.69496 1.79715
thorax -6.2141 0.871751 1.5791
lowerneck -7.61897 -7.95108 -8.26893
upperneck 25.5976 -17.577 25.9914
head 13.2992 -6.31594 9.17136
rclavicle 1.41137e-014 2.8625e-014
rhumerus -46.7916 0.358573 -81.1507
rradius 31.5795
rwrist 19.0735
rhand -6.77044 -51.2092
rfingers 7.12502
rthumb 19.0916 -80.2922
lclavicle 1.41137e-014 2.8625e-014
lhumerus -43.2638 7.41671 79.564
lradius 34.6635
lwrist -12.1144
lhand -4.86576 -33.7705
lfingers 7.12502
lthumb 20.9224 -4.8788
rfemur 7.25217 1.51113 20.8037
rtibia 52.6185
rfoot 16.0678 -1.009
rtoes -2.80098
lfemur -10.4703 -17.9179 -28.8851
ltibia 23.0049
lfoot -11.354 17.4649
ltoes 11.2002
1990
root 10.9172 15.4789 -14.837 -5.02469 -3.56262 1.57802
lowerback 3.41005 1.10897 -0.0277788
upperback -4.13513 1.58142 1.78891
thorax -6.26197 0.828638 1.7387
lowerneck -7.96124 -7.9626 -8.25383
upperneck 25.892 -17.6186 25.7926
head 13.4843 -6.30706 9.09027
rclavicle 2.08724e-014 1.19271e-014
rhumerus -46.3485 0.454657 -81.2214
rradius 31.5653
rwrist 18.8776
rhand -6.7396 -51.5264
rfingers 7.12502
rthumb 19.1213 -80.6064
lclavicle 2.08724e-014 1.19271e-014
lhumerus -42.87 7.49377 79.7589
lradius 34.7136
lwrist -12.1697
lhand -5.70751 -34.523
lfingers 7.12502
lthumb 20.1135 -5.54412
rfemur 5.83871 1.2068 20.2831
rtibia 54.6725
rfoot 15.9775 -1.31184
rtoes -4.77508
lfemur -9.9747 -17.6591 -29.3433
ltibia 22.6556
lfoot -11.5573 17.0906
ltoes 11.1585
1991
root 10.9317 15.4763 -14.7576 -4.93333 -3.3739 1.85521
lowerback 3.52859 1.04204 -0.253555
upperback -4.23859 1.47522 1.70245
thorax -6.43992 0.785503 1.7824
lowerneck -7.47084 -7.89934 -8.26785
upperneck 26.1014 -17.5558 25.7247
head 13.4358 -6.31274 9.11114
rclavicle 5.76476e-015 -8.74653e-015
rhumerus -46.2081 0.371693 -81.2804
rradius 31.6247
rwrist 18.7889
rhand -6.88186 -51.3588
rfingers 7.12502
rthumb 18.9844 -80.4523
lclavicle 5.76476e-015 -8.74653e-015
lhumerus -42.5357 7.58712 79.8228
lradius 34.565
lwrist -12.4703
lhand -5.93817 -35.4767
lfingers 7.12502
lthumb 19.8918 -6.47474
rfemur 4.3839 0.818538 19.7399
rtibia 56.6125
rfoot 17.4595 -1.77404
rtoes 0.683053
lfemur -9.61111 -17.3869 -29.8026
ltibia 22.4422
lfoot -11.8144 16.6184
ltoes 11.7505
1992
root 10.9455 15.4847 -14.672 -4.89249 -3.17602 2.15524
lowerback 3.55503 0.986573 -0.532656
upperback -4.28153 1.37869 1.6209
thorax -6.5022 0.749503 1.86227
lowerneck -7.25145 -7.7843 -8.17733
upperneck 26.1837 -17.4148 25.7299
head 13.3764 -6.25147 9.13725
rclavicle 1.78906e-015 -9.54166e-015
rhumerus -45.9939 0.0392023 -81.1513
rradius 31.7085
rwrist 19.0728
rhand -7.19272 -50.6143
rfingers 7.12502
rthumb 18.6855 -79.7368
lclavicle 1.78906e-015 -9.54166e-015
lhumerus -42.0932 7.70057 79.8385
lradius 34.2349
lwrist -13.1143
lhand -5.88627 -35.4171
lfingers 7.12502
lthumb 19.9417 -6.42032
rfemur 3.05158 0.347147 19.1532
rtibia 58.4077
rfoot 15.6329 -2.79816
rtoes -10.0759
lfemur -9.34401 -17.1293 -30.2972
ltibia 22.3561
lfoot -11.715 16.3428
ltoes 9.37664
1993
root 10.957 15.4948 -14.5869 -4.86384 -3.06391 2.19496
lowerback 3.54816 0.923549 -0.61475
upperback -4.18939 1.29144 1.68481
thorax -6.40088 0.710975 1.98357
lowerneck -7.37923 -7.70694 -8.17666
upperneck 26.4165 -17.3323 25.653
head 13.4749 -6.19875 9.13898
rclavicle 9.14409e-015 -8.74653e-015
rhumerus -45.322 -0.301002 -80.9535
rradius 31.5697
rwrist 19.3624
rhand -7.42877 -50.28
rfingers 7.12502
rthumb 18.4584 -79.4243
lclavicle 9.14409e-015 -8.74653e-015
lhumerus -41.4136 8.01172 79.9751
lradius 33.981
lwrist -13.5669
lhand -6.06617 -34.8852
lfingers 7.12502
lthumb 19.7687 -5.87044
rfemur 1.81212 -0.0337832 18.9276
rtibia 60.0523
rfoot 16.0746 -2.69583
rtoes -6.32538
lfemur -9.12981 -16.7473 -30.499
ltibia 22.3654
lfoot -11.7171 16.0808
ltoes 5.66249
1994
root 10.9647 15.4892 -14.5108 -4.85483 -2.88379 2.03315
lowerback 3.66736 0.825737 -0.556216
upperback -4.11845 1.1716 1.81837
thorax -6.39154 0.652072 2.09998
lowerneck -7.50338 -7.72234 -8.15996
upperneck 26.7484 -17.3691 25.4005
head 13.6179 -6.2073 9.04378
rclavicle -6.55989e-015 -1.74931e-014
rhumerus -44.7407 -0.461694 -80.8737
rradius 31.4801
rwrist 19.2821
rhand -7.78602 -50.1719
rfingers 7.12502
rthumb 18.1147 -79.3484
lclavicle -6.55989e-015 -1.74931e-014
lhumerus -40.7398 8.51822 80.0918
lradius 33.7069
lwrist -14.0912
lhand -6.31863 -34.8229
lfingers 7.12502
lthumb 19.526 -5.78342
rfemur 0.591354 -0.40659 19.0219
rtibia 61.6059
rfoot 13.2624 -2.73603
rtoes -16.6007
lfemur -8.786 -16.3355 -30.4832
ltibia 22.35
lfoot -11.9242 15.6959
ltoes 3.43945
1995
root 10.9712 15.4847 -14.4338 -4.93936 -2.47356 2.12698
lowerback 3.84676 0.672885 -0.775955
upperback -4.08493 0.954133 1.84859
thorax -6.45504 0.55602 2.27396
lowerneck -7.6809 -7.7626 -8.02695
upperneck 27.2277 -17.4589 24.9998
head 13.8187 -6.22732 8.86079
rclavicle -9.14409e-015 4.77083e-015
rhumerus -44.4157 -0.676646 -80.7975
rradius 31.4356
rwrist 19.2261
rhand -8.24409 -49.9239
rfingers 7.12502
rthumb 17.674 -79.1407
lclavicle -9.14409e-015 4.77083e-015
lhumerus -40.1518 8.82863 80.1711
lradius 33.3659
lwrist -14.4416
lhand -6.31628 -35.1119
lfingers 7.12502
lthumb 19.5283 -6.07263
rfemur -0.483893 -0.952581 18.8249
rtibia 63.0826
rfoot 11.598 -1.96707
rtoes -19.0483
lfemur -8.32385 -16.0585 -30.7727
ltibia 22.3685
lfoot -12.0192 15.2395
ltoes 3.42534
1996
root 10.9775 15.487 -14.3562 -5.0481 -2.04397 2.34347
lowerback 4.04192 0.529527 -1.06865
upperback -4.08761 0.739596 1.80818
thorax -6.56434 0.463847 2.41598
lowerneck -7.68893 -7.72664 -7.86308
upperneck 27.6798 -17.45 24.6742
head 13.9532 -6.20822 8.7272
rclavicle 1.59028e-015 2.78299e-014
rhumerus -44.1978 -1.00865 -80.6975
rradius 31.4431
rwrist 19.3754
rhand -8.49193 -49.9354
rfingers 7.12502
rthumb 17.4355 -79.1735
lclavicle 1.59028e-015 2.78299e-014
lhumerus -39.7367 8.87979 80.2569
lradius 33.1904
lwrist -14.6579
lhand -6.49089 -35.4836
lfingers 7.12502
lthumb 19.3604 -6.42737
rfemur -1.51982 -1.47683 18.4867
rtibia 64.4638
rfoot 10.3631 -1.16776
rtoes -17.262
lfemur -7.94006 -15.7891 -31.1756
ltibia 22.4814
lfoot -12.2495 14.7148
ltoes 4.76903
